<svg xmlns:xlink="http://www.w3.org/1999/xlink" style="width:100%;height:100%;transform:translate3d(0,0,0);content-visibility:visible" height="864" width="1152" xmlns="http://www.w3.org/2000/svg"><defs><path id="reuse-0" d="M0 0h1152v864H0z"></path></defs><defs><clipPath id="b"><use xlink:href="#reuse-0"></use></clipPath><clipPath id="g"><use xlink:href="#reuse-0"></use></clipPath><clipPath id="d"><use xlink:href="#reuse-0"></use></clipPath><clipPath id="c"><use xlink:href="#reuse-0"></use></clipPath><radialGradient fy="0" fx="0" r="356.1" cy="0" cx="0" gradientUnits="userSpaceOnUse" spreadMethod="pad" id="e"><stop stop-color="#FFF" offset="0%"></stop><stop stop-color="#FFF" offset="50%"></stop><stop stop-color="#FFF" offset="100%"></stop></radialGradient><radialGradient fy="0" fx="0" r="356.1" cy="0" cx="0" gradientUnits="userSpaceOnUse" spreadMethod="pad" id="a"><stop stop-opacity="0" offset="0%" stop-color="#FFF"></stop><stop stop-opacity=".5" offset="91%" stop-color="#FFF"></stop><stop offset="100%" stop-color="#FFF"></stop></radialGradient><mask id="f"><path d="M554-404v808H-554v-808H554z" fill="url(#a)"></path></mask></defs><g clip-path="url(#b)"><g style="display:block" transform="translate(186)" clip-path="url(#c)"><g style="display:block"><path d="M-512 577c-1-32-28-57-62-57-10 0-19 2-28 6a78 78 0 0 0-63-31c-30 0-57 17-69 42-4-2-9-2-13-2-25 0-46 18-49 42h284zm490-258a35 35 0 0 0-37-34 45 45 0 0 0-80 3 30 30 0 0 0-42 31h159zm-182 386a47 47 0 0 1 68-41 58 58 0 0 1 95-1 47 47 0 0 1 67 18c5-4 11-6 18-6 18 0 32 13 34 30h-282zm-219-477a42 42 0 0 0-61-36 52 52 0 0 0-85-2 42 42 0 0 0-60 17c-5-4-11-5-17-5-15 0-28 11-30 26h253z" fill="#F3F3F3"></path></g><g style="display:block"><path d="M679 577c0-32-27-57-61-57-10 0-19 2-28 6a78 78 0 0 0-63-31c-31 0-57 17-69 42-4-2-9-2-13-2-26 0-46 18-49 42h283zm491-258a35 35 0 0 0-37-34 45 45 0 0 0-80 3 30 30 0 0 0-42 31h159zM988 705a47 47 0 0 1 68-41 58 58 0 0 1 94-1 47 47 0 0 1 68 18c5-4 11-6 18-6 17 0 32 13 33 30H988zM768 228a42 42 0 0 0-60-36 52 52 0 0 0-85-2 42 42 0 0 0-61 17c-4-4-10-5-16-5-16 0-28 11-30 26h252z" fill="#F3F3F3"></path></g></g><g style="display:block" transform="translate(186)" clip-path="url(#d)"><path style="display:block" transform="matrix(1.46362 0 0 1.10951 579 437)" d="M554-404v808H-554v-808H554z" mask="url(#f)" fill="url(#e)"></path></g><path style="display:block" transform="matrix(1.08341 0 0 1.0316 930 442)" d="m323-440-3 880h-640l167-159 40-69-42-30 38-53 41-116-16-77 415-376z" fill="#D3D3D3"></path><g style="display:block"><path d="M767 577c-2 4-7 5-10 7l-1 2c-22-10-46-19-70-25 7-11 12-23 14-35 24 7 47 19 66 36l-1 1 2 6c1 3 2 6 0 8z" fill="#FFF"></path><path fill="none" d="M767 577c-2 4-7 5-10 7l-1 2c-22-10-46-19-70-25 7-11 12-23 14-35 24 7 47 19 66 36l-1 1 2 6c1 3 2 6 0 8z" stroke-width="2" stroke="#585858" stroke-dasharray="60 4" stroke-linejoin="round" stroke-linecap="round"></path><g opacity=".1"><path d="m756 586 1-2 9-5a90 90 0 0 0-39-23l-22-6h-2v-7c0-6 0-11-2-17h-1c-2 12-7 24-14 35 24 6 48 15 70 25z" fill="#585858"></path></g></g><g style="display:block"><path fill="none" d="M766 561v1" stroke-width="2" stroke="#585858" stroke-dasharray="60 11" stroke-linejoin="round" stroke-linecap="round"></path><path d="m810 548-1 1a243 243 0 0 1-23 52c-1 2-6 0-7 0a315 315 0 0 1 11-26c5-9 8-19 12-29v-1l1-2c2-5 6-9 7-14a3 3 0 0 1 1 1c2 3 1 9-1 18z" fill="#FFF"></path><path fill="none" d="m810 548-1 1a243 243 0 0 1-23 52c-1 2-6 0-7 0 0 0 0 0 0 0a315 315 0 0 1 11-26c5-9 8-19 12-29v-1l1-2c2-5 6-9 7-14 0 0 0 0 0 0a3 3 0 0 1 1 1c2 3 1 9-1 18z" stroke-width="2" stroke="#585858" stroke-dasharray="61 3" stroke-linejoin="round" stroke-linecap="round"></path><path d="M805 544v2a569 569 0 0 1-24 55h-2a47 47 0 0 1-22-13l-1-2 1-2c3-2 8-3 10-7 2-2 1-5 0-8l-2-6 1-1v-1l1-2a24 24 0 0 1 4-2l4-3a65 65 0 0 0 11-9 109 109 0 0 0 5-6 72 72 0 0 1 1-1l3 2c2 2 5 2 8 3l2 1z" fill="#D3D3D3"></path><path fill="none" d="M805 544v2a569 569 0 0 1-24 55s0 0 0 0h-2s0 0 0 0a47 47 0 0 1-22-13l-1-2 1-2c3-2 8-3 10-7 2-2 1-5 0-8l-2-6 1-1s0 0 0 0v-1l1-2a24 24 0 0 1 4-2l4-3a65 65 0 0 0 11-9s0 0 0 0a109 109 0 0 0 5-6s0 0 0 0a72 72 0 0 1 1-1l3 2c2 2 5 2 8 3l2 1z" stroke-width="2" stroke="#585858" stroke-dasharray="61 3" stroke-linejoin="round" stroke-linecap="round"></path><g><path d="m805 546 6-16c-7-4-14 2-20 9l14 7z" fill="#FFF"></path><path fill="none" d="m805 546 6-16c-7-4-14 2-20 9l14 7z" stroke-width="2" stroke="#585858" stroke-dasharray="61 3" stroke-linejoin="round" stroke-linecap="round"></path></g><g><path fill="none" d="m794 544-3-3M794 544a55 55 0 0 1-6 7 165 165 0 0 1-12 12M774 565a73 73 0 0 1-3 3l-2 1M774 558c0 1 0 3 2 5" stroke-width="2" stroke="#585858" stroke-dasharray="60 11" stroke-linejoin="round" stroke-linecap="round"></path><path fill="none" d="M770 560v3l1 1 2 2M776 556l3 4M779 553l3 4M785 554l-3-3M785 548s0 0 0 0l3 3M790 548l-2-3" stroke-width="2" stroke="#585858" stroke-dasharray="60 11" stroke-linejoin="round" stroke-linecap="round"></path></g><g><path fill="none" d="M778 569c1-2-1-5-3-6-3-1-6-1-6 1-1 2 1 4 4 5 2 1 5 2 5 0z" stroke-width="2" stroke="#585858" stroke-dasharray="60 11" stroke-linejoin="round" stroke-linecap="round"></path></g><g><path fill="none" d="M770 563s0 0 0 0a5 5 0 0 0-1-5c-2-2-5-4-6-3l2 6s0 0 0 0l1 1 3 2s0 0 0 0l1-1z" stroke-width="2" stroke="#585858" stroke-dasharray="60 11" stroke-linejoin="round" stroke-linecap="round"></path></g></g><g style="display:block" transform="translate(186)" clip-path="url(#g)"><g style="display:block"><path d="M533 703c-5-23-47-62-73-89l-3-2a137 137 0 0 0 37-25c22 30 51 67 58 112l-19 4z" fill="#FFF"></path><path fill="none" d="M533 703c-5-23-47-62-73-89l-3-2a137 137 0 0 0 37-25c22 30 51 67 58 112l-19 4z" stroke-width="2" stroke="#585858" stroke-dasharray="60 4" stroke-linejoin="round" stroke-linecap="round"></path><g opacity=".1"><path d="M546 702c-3-8-58-87-64-93l-2-1a71 71 0 0 0 14-22c-11 11-23 20-37 26l3 3c26 27 72 72 74 91l12-4z" fill="#585858"></path></g></g><g style="display:block"><path fill="none" d="M548 683s0 0 0 0 0 0 0 0" stroke-width="2" stroke="#585858" stroke-dasharray="60 11" stroke-linejoin="round" stroke-linecap="round"></path><path d="m594 690-8 8a284 284 0 0 1-37 30c-1 1-5-3-6-4l22-18 23-22a22 22 0 0 1 2-1c4-4 9-6 12-10a3 3 0 0 1 1 1c1 4-3 9-9 16z" fill="#FFF"></path><path fill="none" d="M594 690s0 0 0 0l-8 8a284 284 0 0 1-37 30c-1 1-5-3-6-4 0 0 0 0 0 0l22-18 23-22a22 22 0 0 1 2-1c4-4 9-6 12-10 0 0 0 0 0 0a3 3 0 0 1 1 1c1 4-3 9-9 16z" stroke-width="2" stroke="#585858" stroke-dasharray="61 3" stroke-linejoin="round" stroke-linecap="round"></path><path d="m592 685-2 1a563 563 0 0 1-45 39h-2v-1a47 47 0 0 1-14-21v-2l2-1c3-1 9 0 12-2s3-5 3-8l1-5a3 3 0 0 1 1-2l3-1h2l2-1h4a60 60 0 0 0 11-3h2l2-1a107 107 0 0 0 7-3l1-1 2 4 6 6 2 2z" fill="#D3D3D3"></path><path fill="none" d="m592 685-2 1a563 563 0 0 1-45 39h-2v-1s0 0 0 0a47 47 0 0 1-14-21v-2l2-1c3-1 9 0 12-2s3-5 3-8l1-5a3 3 0 0 1 1-2l3-1h2l2-1h4a60 60 0 0 0 11-3h2l2-1s0 0 0 0a107 107 0 0 0 7-3s0 0 0 0l1-1s0 0 0 0l2 4 6 6 2 2z" stroke-width="2" stroke="#585858" stroke-dasharray="61 3" stroke-linejoin="round" stroke-linecap="round"></path><g><path d="m603 674-11 11-2 1-1-2-8-10 1-1c8-3 16-5 20 0l1 1z" fill="#FFF"></path><path fill="none" d="M603 674s0 0 0 0l-11 11-2 1-1-2-8-10s0 0 0 0l1-1c8-3 16-5 20 0l1 1s0 0 0 0z" stroke-width="2" stroke="#585858" stroke-dasharray="61 3" stroke-linejoin="round" stroke-linecap="round"></path></g><g><path fill="none" d="m582 679-2-3M582 679a55 55 0 0 1-9 4 165 165 0 0 1-8 3l-4 1-4 2M554 690a74 74 0 0 1-4 1l-2 1M557 683v6M552 684v4l1 2M561 682v5M564 682l1 4M569 685l-1-4M572 679s0 0 0 0l1 4M576 682v-4" stroke-width="2" stroke="#585858" stroke-dasharray="60 11" stroke-linejoin="round" stroke-linecap="round"></path></g><g><path fill="none" d="M556 696c2-2 2-6 0-8s-5-3-6-1c-1 1-1 4 1 6s4 4 5 3z" stroke-width="2" stroke="#585858" stroke-dasharray="60 11" stroke-linejoin="round" stroke-linecap="round"></path></g><g><path fill="none" d="m553 683-1 3s0 0 0 0 0 0 0 0l-2 1s0 0 0 0v-1h-1l-1-3s0 0 0 0 0 0 0 0 0 0 0 0c0-3-1-7 1-7l4 6v1z" stroke-width="2" stroke="#585858" stroke-dasharray="60 11" stroke-linejoin="round" stroke-linecap="round"></path></g></g></g><g style="display:block"><path d="m616 439 112-72c6-3 15-5 18-11 3-8 29-24 19-7-4 6 16-7 14 3-4 19-32 20-45 34l-101 81-17-28z" fill="#FFF"></path><path fill="none" d="m616 439 112-72c6-3 15-5 18-11 3-8 29-24 19-7-4 6 16-7 14 3-4 19-32 20-45 34l-101 81-17-28z" stroke-width="2" stroke="#585858" stroke-dasharray="60 4" stroke-linejoin="round" stroke-linecap="round"></path></g><g style="display:block"><path opacity=".4" d="M1236-1 662 436l5 1 37-28 63-48 63-48 63-48 63-48L1237 2l-1-3z" fill="#9B9B9B"></path><path d="m641 457 62-47" fill="#FFF"></path><path fill="none" d="m641 457 62-47" stroke-width="1.5" stroke="#585858" stroke-dasharray="67.5 3" stroke-linejoin="round" stroke-linecap="round"></path><path d="m636 450 62-47" fill="#FFF"></path><path fill="none" d="m636 450 62-47" stroke-width="1.5" stroke="#585858" stroke-dasharray="67.5 3" stroke-linejoin="round" stroke-linecap="round"></path><path d="m653 448-17 2" fill="#FFF"></path><path fill="none" d="m653 448-17 2" stroke-width="1.5" stroke="#585858" stroke-dasharray="157.5 3" stroke-linejoin="round" stroke-linecap="round"></path><path d="m673 433-16 2" fill="#FFF"></path><path fill="none" d="m673 433-16 2" stroke-width="1.5" stroke="#585858" stroke-dasharray="157.5 3" stroke-linejoin="round" stroke-linecap="round"></path><path d="m693 417-16 3" fill="#FFF"></path><path fill="none" d="m693 417-16 3" stroke-width="1.5" stroke="#585858" stroke-dasharray="157.5 3" stroke-linejoin="round" stroke-linecap="round"></path><path d="m709 405 53-40" fill="#FFF"></path><path fill="none" d="m709 405 53-40" stroke-width="1.27221" stroke="#585858" stroke-dasharray="57.24945 2.54442" stroke-linejoin="round" stroke-linecap="round"></path><path d="m699 402 62-47" fill="#FFF"></path><path fill="none" d="m699 402 62-47" stroke-width="1.5" stroke="#585858" stroke-dasharray="67.5 3" stroke-linejoin="round" stroke-linecap="round"></path><path d="m716 400-17 2" fill="#FFF"></path><path fill="none" d="m716 400-17 2" stroke-width="1.5" stroke="#585858" stroke-dasharray="157.5 3" stroke-linejoin="round" stroke-linecap="round"></path><path d="m736 385-16 2" fill="#FFF"></path><path fill="none" d="m736 385-16 2" stroke-width="1.5" stroke="#585858" stroke-dasharray="157.5 3" stroke-linejoin="round" stroke-linecap="round"></path><path d="m756 369-16 2" fill="#FFF"></path><path fill="none" d="m756 369-16 2" stroke-width="1.5" stroke="#585858" stroke-dasharray="157.5 3" stroke-linejoin="round" stroke-linecap="round"></path><path d="m767 361 62-48" fill="#FFF"></path><path fill="none" d="m767 361 62-48" stroke-width="1.5" stroke="#585858" stroke-dasharray="67.5 3" stroke-linejoin="round" stroke-linecap="round"></path><path d="m762 354 62-47" fill="#FFF"></path><path fill="none" d="m762 354 62-47" stroke-width="1.5" stroke="#585858" stroke-dasharray="67.5 3" stroke-linejoin="round" stroke-linecap="round"></path><path d="m779 352-17 2" fill="#FFF"></path><path fill="none" d="m779 352-17 2" stroke-width="1.5" stroke="#585858" stroke-dasharray="157.5 3" stroke-linejoin="round" stroke-linecap="round"></path><path d="m799 336-16 3" fill="#FFF"></path><path fill="none" d="m799 336-16 3" stroke-width="1.5" stroke="#585858" stroke-dasharray="157.5 3" stroke-linejoin="round" stroke-linecap="round"></path><path d="m819 321-16 2" fill="#FFF"></path><path fill="none" d="m819 321-16 2" stroke-width="1.5" stroke="#585858" stroke-dasharray="157.5 3" stroke-linejoin="round" stroke-linecap="round"></path><path d="m830 313 62-48" fill="#FFF"></path><path fill="none" d="m830 313 62-48" stroke-width="1.5" stroke="#585858" stroke-dasharray="67.5 3" stroke-linejoin="round" stroke-linecap="round"></path><path d="m825 306 62-47" fill="#FFF"></path><path fill="none" d="m825 306 62-47" stroke-width="1.5" stroke="#585858" stroke-dasharray="67.5 3" stroke-linejoin="round" stroke-linecap="round"></path><path d="m842 304-17 2" fill="#FFF"></path><path fill="none" d="m842 304-17 2" stroke-width="1.5" stroke="#585858" stroke-dasharray="157.5 3" stroke-linejoin="round" stroke-linecap="round"></path><path d="m862 288-16 3" fill="#FFF"></path><path fill="none" d="m862 288-16 3" stroke-width="1.5" stroke="#585858" stroke-dasharray="157.5 3" stroke-linejoin="round" stroke-linecap="round"></path><path d="m882 273-16 2" fill="#FFF"></path><path fill="none" d="m882 273-16 2" stroke-width="1.5" stroke="#585858" stroke-dasharray="157.5 3" stroke-linejoin="round" stroke-linecap="round"></path><path d="m893 265 62-48" fill="#FFF"></path><path fill="none" d="m893 265 62-48" stroke-width="1.5" stroke="#585858" stroke-dasharray="67.5 3" stroke-linejoin="round" stroke-linecap="round"></path><path d="m888 258 62-47" fill="#FFF"></path><path fill="none" d="m888 258 62-47" stroke-width="1.5" stroke="#585858" stroke-dasharray="67.5 3" stroke-linejoin="round" stroke-linecap="round"></path><path d="m905 256-17 2" fill="#FFF"></path><path fill="none" d="m905 256-17 2" stroke-width="1.5" stroke="#585858" stroke-dasharray="157.5 3" stroke-linejoin="round" stroke-linecap="round"></path><path d="m925 240-16 2" fill="#FFF"></path><path fill="none" d="m925 240-16 2" stroke-width="1.5" stroke="#585858" stroke-dasharray="157.5 3" stroke-linejoin="round" stroke-linecap="round"></path><path d="m945 225-16 2" fill="#FFF"></path><path fill="none" d="m945 225-16 2" stroke-width="1.5" stroke="#585858" stroke-dasharray="157.5 3" stroke-linejoin="round" stroke-linecap="round"></path><path d="m956 216 62-47" fill="#FFF"></path><path fill="none" d="m956 216 62-47" stroke-width="1.5" stroke="#585858" stroke-dasharray="67.5 3" stroke-linejoin="round" stroke-linecap="round"></path><path d="m951 210 62-48" fill="#FFF"></path><path fill="none" d="m951 210 62-48" stroke-width="1.5" stroke="#585858" stroke-dasharray="67.5 3" stroke-linejoin="round" stroke-linecap="round"></path><path d="m968 207-17 3" fill="#FFF"></path><path fill="none" d="m968 207-17 3" stroke-width="1.5" stroke="#585858" stroke-dasharray="157.5 3" stroke-linejoin="round" stroke-linecap="round"></path><path d="m988 192-16 2" fill="#FFF"></path><path fill="none" d="m988 192-16 2" stroke-width="1.5" stroke="#585858" stroke-dasharray="157.5 3" stroke-linejoin="round" stroke-linecap="round"></path><path d="m1008 177-16 2" fill="#FFF"></path><path fill="none" d="m1008 177-16 2" stroke-width="1.5" stroke="#585858" stroke-dasharray="157.5 3" stroke-linejoin="round" stroke-linecap="round"></path><path d="m1017 170 62-47" fill="#FFF"></path><path fill="none" d="m1017 170 62-47" stroke-width="1.5" stroke="#585858" stroke-dasharray="67.5 3" stroke-linejoin="round" stroke-linecap="round"></path><path d="m1012 164 62-48" fill="#FFF"></path><path fill="none" d="m1012 164 62-48" stroke-width="1.5" stroke="#585858" stroke-dasharray="67.5 3" stroke-linejoin="round" stroke-linecap="round"></path><path d="m1028 161-16 3" fill="#FFF"></path><path fill="none" d="m1028 161-16 3" stroke-width="1.5" stroke="#585858" stroke-dasharray="157.5 3" stroke-linejoin="round" stroke-linecap="round"></path><path d="m1048 146-16 2" fill="#FFF"></path><path fill="none" d="m1048 146-16 2" stroke-width="1.5" stroke="#585858" stroke-dasharray="157.5 3" stroke-linejoin="round" stroke-linecap="round"></path><path d="m1069 131-17 2" fill="#FFF"></path><path fill="none" d="m1069 131-17 2" stroke-width="1.5" stroke="#585858" stroke-dasharray="157.5 3" stroke-linejoin="round" stroke-linecap="round"></path><path d="m1080 122 62-47" fill="#FFF"></path><path fill="none" d="m1080 122 62-47" stroke-width="1.5" stroke="#585858" stroke-dasharray="67.5 3" stroke-linejoin="round" stroke-linecap="round"></path><path d="m1075 116 62-48" fill="#FFF"></path><path fill="none" d="m1075 116 62-48" stroke-width="1.5" stroke="#585858" stroke-dasharray="67.5 3" stroke-linejoin="round" stroke-linecap="round"></path><path d="m1091 113-16 3" fill="#FFF"></path><path fill="none" d="m1091 113-16 3" stroke-width="1.5" stroke="#585858" stroke-dasharray="157.5 3" stroke-linejoin="round" stroke-linecap="round"></path><path d="m1111 98-16 2" fill="#FFF"></path><path fill="none" d="m1111 98-16 2" stroke-width="1.5" stroke="#585858" stroke-dasharray="157.5 3" stroke-linejoin="round" stroke-linecap="round"></path><path d="m1132 82-17 3" fill="#FFF"></path><path fill="none" d="m1132 82-17 3" stroke-width="1.5" stroke="#585858" stroke-dasharray="157.5 3" stroke-linejoin="round" stroke-linecap="round"></path><path d="m1143 74 62-47" fill="#FFF"></path><path fill="none" d="m1143 74 62-47" stroke-width="1.5" stroke="#585858" stroke-dasharray="67.5 3" stroke-linejoin="round" stroke-linecap="round"></path><path d="m1138 67 61-47" fill="#FFF"></path><path fill="none" d="m1138 67 61-47" stroke-width="1.5" stroke="#585858" stroke-dasharray="67.5 3" stroke-linejoin="round" stroke-linecap="round"></path><g><path d="m1154 65-16 2" fill="#FFF"></path><path fill="none" d="m1154 65-16 2" stroke-width="1.5" stroke="#585858" stroke-dasharray="157.5 3" stroke-linejoin="round" stroke-linecap="round"></path></g><g><path d="m1174 50-16 2" fill="#FFF"></path><path fill="none" d="m1174 50-16 2" stroke-width="1.5" stroke="#585858" stroke-dasharray="157.5 3" stroke-linejoin="round" stroke-linecap="round"></path></g><g><path d="m1195 34-17 3" fill="#FFF"></path><path fill="none" d="m1195 34-17 3" stroke-width="1.5" stroke="#585858" stroke-dasharray="157.5 3" stroke-linejoin="round" stroke-linecap="round"></path></g><g><path d="m1206 26 62-47" fill="#FFF"></path><path fill="none" d="m1206 26 62-47" stroke-width="1.5" stroke="#585858" stroke-dasharray="67.5 3" stroke-linejoin="round" stroke-linecap="round"></path></g><g><path d="m1201 19 61-47" fill="#FFF"></path><path fill="none" d="m1201 19 61-47" stroke-width="1.5" stroke="#585858" stroke-dasharray="67.5 3" stroke-linejoin="round" stroke-linecap="round"></path></g><g><path d="m1217 17-16 2" fill="#FFF"></path><path fill="none" d="m1217 17-16 2" stroke-width="1.5" stroke="#585858" stroke-dasharray="157.5 3" stroke-linejoin="round" stroke-linecap="round"></path></g><g><path d="m1237 2-16 2" fill="#FFF"></path><path fill="none" d="m1237 2-16 2" stroke-width="1.5" stroke="#585858" stroke-dasharray="157.5 3" stroke-linejoin="round" stroke-linecap="round"></path></g><g><path d="m1258-14-17 2" fill="#FFF"></path><path fill="none" d="m1258-14-17 2" stroke-width="1.5" stroke="#585858" stroke-dasharray="157.5 3" stroke-linejoin="round" stroke-linecap="round"></path></g><g><path opacity=".4" d="m494 922 65-209 22-74 23-74-2-3-114 365 6-5z" fill="#9B9B9B"></path></g><g><path d="m540 773-12 12" fill="#FFF"></path><path fill="none" d="m540 773-12 12" stroke-width="1.5" stroke="#585858" stroke-dasharray="157.5 3" stroke-linejoin="round" stroke-linecap="round"></path></g><g><path d="m547 749-12 12" fill="#FFF"></path><path fill="none" d="m547 749-12 12" stroke-width="1.5" stroke="#585858" stroke-dasharray="157.5 3" stroke-linejoin="round" stroke-linecap="round"></path></g><g><path d="m555 725-12 12" fill="#FFF"></path><path fill="none" d="m555 725-12 12" stroke-width="1.5" stroke="#585858" stroke-dasharray="157.5 3" stroke-linejoin="round" stroke-linecap="round"></path></g><g><path d="m559 712 22-73" fill="#FFF"></path><path fill="none" d="m559 712 22-73" stroke-width="1.5" stroke="#585858" stroke-dasharray="67.5 3" stroke-linejoin="round" stroke-linecap="round"></path></g><g><path d="m551 710 22-73" fill="#FFF"></path><path fill="none" d="m551 710 22-73" stroke-width="1.5" stroke="#585858" stroke-dasharray="67.5 3" stroke-linejoin="round" stroke-linecap="round"></path></g><g><path d="m563 698-12 12" fill="#FFF"></path><path fill="none" d="m563 698-12 12" stroke-width="1.5" stroke="#585858" stroke-dasharray="157.5 3" stroke-linejoin="round" stroke-linecap="round"></path></g><g><path d="m570 675-12 12" fill="#FFF"></path><path fill="none" d="m570 675-12 12" stroke-width="1.5" stroke="#585858" stroke-dasharray="157.5 3" stroke-linejoin="round" stroke-linecap="round"></path></g><g><path d="m578 651-12 12" fill="#FFF"></path><path fill="none" d="m578 651-12 12" stroke-width="1.5" stroke="#585858" stroke-dasharray="157.5 3" stroke-linejoin="round" stroke-linecap="round"></path></g><g><path d="m582 638 22-73" fill="#FFF"></path><path fill="none" d="m582 638 22-73" stroke-width="1.5" stroke="#585858" stroke-dasharray="67.5 3" stroke-linejoin="round" stroke-linecap="round"></path></g><g><path d="m574 636 22-73" fill="#FFF"></path><path fill="none" d="m574 636 22-73" stroke-width="1.5" stroke="#585858" stroke-dasharray="67.5 3" stroke-linejoin="round" stroke-linecap="round"></path></g><g><path d="m586 624-12 12" fill="#FFF"></path><path fill="none" d="m586 624-12 12" stroke-width="1.5" stroke="#585858" stroke-dasharray="157.5 3" stroke-linejoin="round" stroke-linecap="round"></path></g><g><path d="m593 601-12 11" fill="#FFF"></path><path fill="none" d="m593 601-12 11" stroke-width="1.5" stroke="#585858" stroke-dasharray="157.5 3" stroke-linejoin="round" stroke-linecap="round"></path></g><g><path d="m600 577-12 12" fill="#FFF"></path><path fill="none" d="m600 577-12 12" stroke-width="1.5" stroke="#585858" stroke-dasharray="157.5 3" stroke-linejoin="round" stroke-linecap="round"></path></g><g><path d="m467 1009 23-73" fill="#FFF"></path><path fill="none" d="m467 1009 23-73" stroke-width="1.5" stroke="#585858" stroke-dasharray="67.5 3" stroke-linejoin="round" stroke-linecap="round"></path></g><g><path d="m459 1007 23-73" fill="#FFF"></path><path fill="none" d="m459 1007 23-73" stroke-width="1.5" stroke="#585858" stroke-dasharray="67.5 3" stroke-linejoin="round" stroke-linecap="round"></path></g><g><path d="m471 995-12 12" fill="#FFF"></path><path fill="none" d="m471 995-12 12" stroke-width="1.5" stroke="#585858" stroke-dasharray="157.5 3" stroke-linejoin="round" stroke-linecap="round"></path></g><g><path d="m479 971-12 12" fill="#FFF"></path><path fill="none" d="m479 971-12 12" stroke-width="1.5" stroke="#585858" stroke-dasharray="157.5 3" stroke-linejoin="round" stroke-linecap="round"></path></g><g><path d="m486 948-12 12" fill="#FFF"></path><path fill="none" d="m486 948-12 12" stroke-width="1.5" stroke="#585858" stroke-dasharray="157.5 3" stroke-linejoin="round" stroke-linecap="round"></path></g><g><path d="m490 935 23-73" fill="#FFF"></path><path fill="none" d="m490 935 23-73" stroke-width="1.5" stroke="#585858" stroke-dasharray="67.5 3" stroke-linejoin="round" stroke-linecap="round"></path></g><g><path d="m482 933 23-73" fill="#FFF"></path><path fill="none" d="m482 933 23-73" stroke-width="1.5" stroke="#585858" stroke-dasharray="67.5 3" stroke-linejoin="round" stroke-linecap="round"></path></g><g><path d="m494 921-12 12" fill="#FFF"></path><path fill="none" d="m494 921-12 12" stroke-width="1.5" stroke="#585858" stroke-dasharray="157.5 3" stroke-linejoin="round" stroke-linecap="round"></path></g><g><path d="m502 897-12 12" fill="#FFF"></path><path fill="none" d="m502 897-12 12" stroke-width="1.5" stroke="#585858" stroke-dasharray="157.5 3" stroke-linejoin="round" stroke-linecap="round"></path></g><g><path d="m509 874-12 11" fill="#FFF"></path><path fill="none" d="m509 874-12 11" stroke-width="1.5" stroke="#585858" stroke-dasharray="157.5 3" stroke-linejoin="round" stroke-linecap="round"></path></g><g><path d="m513 861 45-148" fill="#FFF"></path><path fill="none" d="m513 861 45-148" stroke-width="1.5" stroke="#585858" stroke-dasharray="67.5 3" stroke-linejoin="round" stroke-linecap="round"></path></g><g><path d="m505 859 45-147" fill="#FFF"></path><path fill="none" d="m505 859 45-147" stroke-width="1.5" stroke="#585858" stroke-dasharray="67.5 3" stroke-linejoin="round" stroke-linecap="round"></path></g><g><path d="m517 847-12 12" fill="#FFF"></path><path fill="none" d="m517 847-12 12" stroke-width="1.5" stroke="#585858" stroke-dasharray="157.5 3" stroke-linejoin="round" stroke-linecap="round"></path></g><g><path d="m525 823-13 12" fill="#FFF"></path><path fill="none" d="m525 823-13 12" stroke-width="1.5" stroke="#585858" stroke-dasharray="157.5 3" stroke-linejoin="round" stroke-linecap="round"></path></g><g><path d="m532 799-12 12" fill="#FFF"></path><path fill="none" d="m532 799-12 12" stroke-width="1.5" stroke="#585858" stroke-dasharray="157.5 3" stroke-linejoin="round" stroke-linecap="round"></path></g></g><g style="display:block"><path d="M644 356c9 12 32 36 9 50-4 3-14 1-17-1 12 22 13 40 13 40l-34-17-7-54" fill="#FFF"></path><path fill="none" d="M644 356c9 12 32 36 9 50-4 3-14 1-17-1 12 22 13 40 13 40l-34-17-7-54" stroke-width="2" stroke="#585858" stroke-dasharray="60 4" stroke-linejoin="round" stroke-linecap="round"></path><path opacity=".1" d="M659 377v3c-1 13-9 25-25 17-5-3-8-1-8-1s13 12 5 40l18 9s-1-17-12-37v-1l-1-2c3 2 13 4 17 1 13-8 11-19 6-29z" fill="#515151"></path><path fill="none" d="M636 406c-3-2-6-5-8-9" stroke-width="2" stroke="#585858" stroke-dasharray="60 4" stroke-linejoin="round" stroke-linecap="round"></path><path d="M645 335c4 3 4 16-1 19v1c-1 3-2 5-5 6l-2 1-2 1-2 1h-6c-1-1-2 0-2 1-1 1-2 3-4 3l-6 1c-1-1-1 0-2 1l-4 3a16 16 0 0 1-4 1l-6-2h-6c-3-1-6-4-5-8h-1c-4-1-5-6-3-10l1-1v-3c-1-3-2-8 2-10 2-2 5-3 7-3l3-3c-1-4-1-9 2-12 3-4 10-5 15-3h1c4-3 8-3 12-2l2-1c2-2 9-1 13 4 5 5-1 12 3 15z" fill="#585858"></path><path fill="none" d="m642 367 1 2c1 1 2 0 2 2 1 1-1 3-2 2m-3 5c5 1 9 0 10-5m-12-4s0 0 0 0h-1v-1l1 1zm7-3s0 0 0 0h-1 1s0 0 0 0z" stroke-width="2" stroke="#585858" stroke-dasharray="60 11" stroke-linejoin="round" stroke-linecap="round"></path><path fill="none" d="m642 367 1 2c1 1 2 0 2 2 1 1-1 3-2 2" stroke-width="2" stroke="#585858" stroke-dasharray="60 11" stroke-linejoin="round" stroke-linecap="round"></path><path opacity=".1" d="M628 382c-6 12-18 6-13-6l4-3c-4 3 0 14 8 8l1 1z" fill="#515151"></path><g><path fill="none" d="M627 382c-6 6-12-4-8-8l4-1" stroke-width="2" stroke="#585858" stroke-dasharray="60 11" stroke-linejoin="round" stroke-linecap="round"></path></g><g><path fill="none" d="m623 380-2-2v-2" stroke-width="2" stroke="#585858" stroke-dasharray="100 4" stroke-linejoin="round" stroke-linecap="round"></path></g></g><g style="display:block"><path d="m588 520 17-76s8-22 37-20c28 3 19 44 19 44a81 81 0 0 0 9 30l-38 43-44-7v-14" fill="#D3D3D3"></path><path fill="none" d="m588 520 17-76s8-22 37-20c28 3 19 44 19 44a81 81 0 0 0 9 30l-38 43-44-7v-14" stroke-width="2" stroke="#585858" stroke-dasharray="60 4" stroke-linejoin="round" stroke-linecap="round"></path><g opacity=".1"><path d="m663 476-1-2-1-1c-7-4-13 1-19-2-4-2-6 2-5 5-4 6-9 11-15 14l-1-17c-1-9-7-18-4-26 4-9 11-19 18-22v-1l-10 2c-10 8-17 20-15 36 0 11 3 21 4 32l-2 33c-1 5 3 11 4 6l6-37c7-4 14-9 19-17 3 2 7 1 10 2 6 0 7 2 9 8 1 4 3 8 7 8l2-1c-3-6-5-13-6-20z" fill="#585858"></path></g></g><g style="display:block"><path d="M709 342c8 0 15 6 17 13 4 9 1 20 0 33-4 36-2 77-64 80l9-39c33-7 38-33 38-59" fill="#FFF"></path><path fill="none" d="M709 342c8 0 15 6 17 13 4 9 1 20 0 33-4 36-2 77-64 80l9-39c33-7 38-33 38-59" stroke-width="2" stroke="#585858" stroke-dasharray="60 4" stroke-linejoin="round" stroke-linecap="round"></path><path opacity=".1" d="m667 449-4 14 4 5c57-5 55-45 59-80l2-23c-4 42-15 107-61 84z" fill="#585858"></path><g opacity=".1"><path d="M718 374c-1-3-6 1-7 2-2-3-2 2 1 2 2 1 10 1 6-4z" fill="#585858"></path></g></g><g style="display:block"><path d="m706 378 12-5 2-3-8-40c0-2-3-3-5-1l-11 10-1 2 7 35c0 2 2 3 4 2z" fill="#9B9B9B"></path><path fill="none" d="m706 378 12-5 2-3-8-40c0-2-3-3-5-1l-11 10-1 2 7 35c0 2 2 3 4 2z" stroke-width="2" stroke="#585858" stroke-dasharray="60 4" stroke-linejoin="round" stroke-linecap="round"></path><g><path d="m696 346 5 27 18-8-6-33-17 14z" fill="#BCBCBC"></path><path fill="none" d="m696 346 5 27 18-8-6-33-17 14z" stroke-width="2" stroke="#585858" stroke-dasharray="50 4" stroke-linejoin="round" stroke-linecap="round"></path></g></g><g style="display:block"><path d="M718 380c3-8-13-17-10-21s10 4 14 8" fill="#FFF"></path><path fill="none" d="M718 380c3-8-13-17-10-21s10 4 14 8" stroke-width="2" stroke="#585858" stroke-dasharray="60 4" stroke-linejoin="round" stroke-linecap="round"></path></g><g style="display:block"><path d="m777 350-18 12 5 3 13-8v-7z" fill="#FFF"></path><path d="m760 364-9-2-1-3 2-1c5-1 9 0 13 2l-8-2-3-2 2-2 2-1c4 0 8 1 11 3l-9-3-2-1 2-3 2 1 10 2-8-2-2-1 1-3h3l12 3" fill="#FFF"></path><path fill="none" d="m760 364-9-2-1-3 2-1c5-1 9 0 13 2l-8-2-3-2 2-2 2-1c4 0 8 1 11 3l-9-3-2-1 2-3 2 1 10 2-8-2-2-1 1-3h3l12 3" stroke-width="2" stroke="#585858" stroke-dasharray="60 4" stroke-linejoin="round" stroke-linecap="round"></path></g><g style="display:block"><path d="M700 525c-1 14-6 28-14 39l-17-7c4 10 9 21 12 32-10 11-25 24-38 30-28-14-48-50-53-86 29-4 57-18 82-37 6 13 16 23 28 29z" fill="#9B9B9B"></path><path fill="none" d="M700 525c-1 14-6 28-14 39l-17-7c4 10 9 21 12 32-10 11-25 24-38 30-28-14-48-50-53-86 29-4 57-18 82-37 6 13 16 23 28 29z" stroke-width="2" stroke="#585858" stroke-dasharray="60 4" stroke-linejoin="round" stroke-linecap="round"></path><path opacity=".2" d="M665 535c-1 2 2 16 5 22l15 7c-10-7-16-22-20-29zM643 619l15-9c-11-6-28-20-41-37-15-18-25-39-26-40h-1c2 13 11 43 21 57 12 17 28 27 32 29z" fill="#585858"></path><g><path fill="none" d="M670 558c-4-5-5-16-5-23" stroke-width="2" stroke="#585858" stroke-dasharray="60 11" stroke-linejoin="round" stroke-linecap="round"></path></g></g><g style="display:block"><path d="M637 425c10-2 22-2 32-3 7-1 11 5 11 13 0 10 2 21 0 30-1 11-47 11-50 9" fill="#D3D3D3"></path><path fill="none" d="M637 425c10-2 22-2 32-3 7-1 11 5 11 13 0 10 2 21 0 30-1 11-47 11-50 9" stroke-width="2" stroke="#585858" stroke-dasharray="60 4" stroke-linejoin="round" stroke-linecap="round"></path><g opacity=".1"><path d="M680 465v-5c-15 12-32 12-50 13v1c3 2 49 2 50-9z" fill="#585858"></path></g></g><g style="display:block"><path d="M633 475c-5 9-19 14-19 11v9c5 1 21-9 25-20h-6z" fill="#9B9B9B"></path><path fill="none" d="M633 475c-5 9-19 14-19 11v9c5 1 21-9 25-20h-6z" stroke-width="2" stroke="#585858" stroke-dasharray="60 4" stroke-linejoin="round" stroke-linecap="round"></path><path d="M639 422v2c-4 1-13 5-18 9-6 7-10 19-10 22l-5-12c0-7 12-24 33-21z" fill="#9B9B9B"></path><path fill="none" d="M639 422v2c-4 1-13 5-18 9-6 7-10 19-10 22l-5-12c0-7 12-24 33-21z" stroke-width="2" stroke="#585858" stroke-dasharray="60 4" stroke-linejoin="round" stroke-linecap="round"></path><path d="M615 531c-9 2-43 6-45-3-3-20 0-58 6-77 10-2 21-8 30-8 10 20 12 65 9 88z" fill="#9B9B9B"></path><path fill="none" d="M615 531c-9 2-43 6-45-3-3-20 0-58 6-77 10-2 21-8 30-8 10 20 12 65 9 88z" stroke-width="2" stroke="#585858" stroke-dasharray="60 4" stroke-linejoin="round" stroke-linecap="round"></path><path opacity=".4" d="m606 443-10 2-1 17c-2 8-3 17-2 26 4 15 4 30 8 45l14-2c3-23 1-68-9-88z" fill="#585858"></path><path d="m604 445-32 9c-13-31 7-34 27-41-6 7-7 30 5 32z" fill="#9B9B9B"></path><path fill="none" d="m604 445-32 9c-13-31 7-34 27-41-6 7-7 30 5 32z" stroke-width="2" stroke="#585858" stroke-dasharray="60 4" stroke-linejoin="round" stroke-linecap="round"></path><path d="M613 424c1 3-2 17-7 20-14 3-14-24-7-31 7-5 14 2 14 11z" fill="#9B9B9B"></path><path fill="none" d="M613 424c1 3-2 17-7 20-14 3-14-24-7-31 7-5 14 2 14 11zM580 420a25 25 0 0 0 3 31M590 417c-5 9-4 22 2 31" stroke-width="2" stroke="#585858" stroke-dasharray="60 4" stroke-linejoin="round" stroke-linecap="round"></path><g><path fill="none" d="m596 454-3 24c-1 8 3 40 6 47" stroke-width="2" stroke="#585858" stroke-dasharray="60 4" stroke-linejoin="round" stroke-linecap="round"></path></g><g><path fill="none" d="m574 481 15-2" stroke-width="2" stroke="#585858" stroke-dasharray="60 4" stroke-linejoin="round" stroke-linecap="round"></path></g><g><path fill="none" d="M575 508v3c1 2 3 2 4 2h10l1-1v-1l-1-16-7 1h-6c-2 2-1 10-1 12z" stroke-width="2" stroke="#585858" stroke-dasharray="60 4" stroke-linejoin="round" stroke-linecap="round"></path></g><g opacity=".4"><path d="m609 427-1-2-1 2a8 8 0 0 1-1 1v1h-1v1l-1-1v-3l1-3 1 1h1l-1-3h-3l-1 3-1 3c-1 2 0 4 1 6 0 1 1 2 3 2l1-1 2-1 1-1v-5z" fill="#585858"></path></g><g><path fill="none" d="M607 434c-1 1-3 2-4 1l-2-4c-1-4 1-8 3-10l2-1 2 1" stroke-width="2" stroke="#585858" stroke-dasharray="60 4" stroke-linejoin="round" stroke-linecap="round"></path></g></g></g></svg>